{
    "asset" : {
        "generator" : "Khronos glTF Blender I/O v1.6.16",
        "version" : "2.0"
    },
    "scene" : 0,
    "scenes" : [
        {
            "name" : "Scene",
            "nodes" : [
                1,
                2,
                3
            ]
        }
    ],
    "nodes" : [
        {
            "mesh" : 0,
            "name" : "house_type04"
        },
        {
            "children" : [
                0
            ],
            "name" : "tmpParent"
        },
        {
            "name" : "Light",
            "rotation" : [
                0.16907575726509094,
                0.7558803558349609,
                -0.27217137813568115,
                0.570947527885437
            ],
            "translation" : [
                4.076245307922363,
                5.903861999511719,
                -1.0054539442062378
            ]
        },
        {
            "name" : "Camera",
            "rotation" : [
                0.483536034822464,
                0.33687159419059753,
                -0.20870360732078552,
                0.7804827094078064
            ],
            "translation" : [
                7.358891487121582,
                4.958309173583984,
                6.925790786743164
            ]
        }
    ],
    "materials" : [
        {
            "name" : "border.001",
            "pbrMetallicRoughness" : {
                "baseColorFactor" : [
                    0.5607843399047852,
                    0.5686274766921997,
                    0.6000000238418579,
                    1
                ]
            }
        },
        {
            "name" : "door.001",
            "pbrMetallicRoughness" : {
                "baseColorFactor" : [
                    0.38823530077934265,
                    0.4000000059604645,
                    0.4470588266849518,
                    1
                ]
            }
        },
        {
            "name" : "window.001",
            "pbrMetallicRoughness" : {
                "baseColorFactor" : [
                    0.7372549176216125,
                    0.886274516582489,
                    1,
                    1
                ]
            }
        },
        {
            "name" : "roof.001",
            "pbrMetallicRoughness" : {
                "baseColorFactor" : [
                    0.33725491166114807,
                    0.7372549176216125,
                    0.6000000238418579,
                    1
                ]
            }
        },
        {
            "name" : "_defaultMat.001",
            "pbrMetallicRoughness" : {
                "baseColorFactor" : [
                    0.9528301954269409,
                    0.37477976083755493,
                    0.2921413481235504,
                    1
                ]
            }
        }
    ],
    "meshes" : [
        {
            "name" : "Mesh house_type04",
            "primitives" : [
                {
                    "attributes" : {
                        "POSITION" : 0,
                        "NORMAL" : 1,
                        "TANGENT" : 2,
                        "TEXCOORD_0" : 3
                    },
                    "indices" : 4,
                    "material" : 0
                },
                {
                    "attributes" : {
                        "POSITION" : 5,
                        "NORMAL" : 6,
                        "TANGENT" : 7,
                        "TEXCOORD_0" : 8
                    },
                    "indices" : 9,
                    "material" : 1
                },
                {
                    "attributes" : {
                        "POSITION" : 10,
                        "NORMAL" : 11,
                        "TANGENT" : 12,
                        "TEXCOORD_0" : 13
                    },
                    "indices" : 14,
                    "material" : 2
                },
                {
                    "attributes" : {
                        "POSITION" : 15,
                        "NORMAL" : 16,
                        "TANGENT" : 17,
                        "TEXCOORD_0" : 18
                    },
                    "indices" : 19,
                    "material" : 3
                },
                {
                    "attributes" : {
                        "POSITION" : 20,
                        "NORMAL" : 21,
                        "TANGENT" : 22,
                        "TEXCOORD_0" : 23
                    },
                    "indices" : 24,
                    "material" : 4
                }
            ]
        }
    ],
    "accessors" : [
        {
            "bufferView" : 0,
            "componentType" : 5126,
            "count" : 337,
            "max" : [
                1.25,
                0.5976197123527527,
                -0.04800000041723251
            ],
            "min" : [
                0.05000000074505806,
                0,
                -0.8579999208450317
            ],
            "type" : "VEC3"
        },
        {
            "bufferView" : 1,
            "componentType" : 5126,
            "count" : 337,
            "type" : "VEC3"
        },
        {
            "bufferView" : 2,
            "componentType" : 5126,
            "count" : 337,
            "type" : "VEC4"
        },
        {
            "bufferView" : 3,
            "componentType" : 5126,
            "count" : 337,
            "type" : "VEC2"
        },
        {
            "bufferView" : 4,
            "componentType" : 5123,
            "count" : 468,
            "type" : "SCALAR"
        },
        {
            "bufferView" : 5,
            "componentType" : 5126,
            "count" : 38,
            "max" : [
                1.1799999475479126,
                0.26999998092651367,
                -0.07800000160932541
            ],
            "min" : [
                0.17999999225139618,
                1.804778527019556e-16,
                -0.8379999995231628
            ],
            "type" : "VEC3"
        },
        {
            "bufferView" : 6,
            "componentType" : 5126,
            "count" : 38,
            "type" : "VEC3"
        },
        {
            "bufferView" : 7,
            "componentType" : 5126,
            "count" : 38,
            "type" : "VEC4"
        },
        {
            "bufferView" : 8,
            "componentType" : 5126,
            "count" : 38,
            "type" : "VEC2"
        },
        {
            "bufferView" : 9,
            "componentType" : 5123,
            "count" : 54,
            "type" : "SCALAR"
        },
        {
            "bufferView" : 10,
            "componentType" : 5126,
            "count" : 23,
            "max" : [
                1.1299999952316284,
                0.5726796388626099,
                -0.07800000160932541
            ],
            "min" : [
                0.17123541235923767,
                0.15000000596046448,
                -0.8379999995231628
            ],
            "type" : "VEC3"
        },
        {
            "bufferView" : 11,
            "componentType" : 5126,
            "count" : 23,
            "type" : "VEC3"
        },
        {
            "bufferView" : 12,
            "componentType" : 5126,
            "count" : 23,
            "type" : "VEC4"
        },
        {
            "bufferView" : 13,
            "componentType" : 5126,
            "count" : 23,
            "type" : "VEC2"
        },
        {
            "bufferView" : 14,
            "componentType" : 5123,
            "count" : 33,
            "type" : "SCALAR"
        },
        {
            "bufferView" : 15,
            "componentType" : 5126,
            "count" : 273,
            "max" : [
                1.2863802909851074,
                0.737500011920929,
                0
            ],
            "min" : [
                0,
                0.3699999749660492,
                -0.9160000085830688
            ],
            "type" : "VEC3"
        },
        {
            "bufferView" : 16,
            "componentType" : 5126,
            "count" : 273,
            "type" : "VEC3"
        },
        {
            "bufferView" : 17,
            "componentType" : 5126,
            "count" : 273,
            "type" : "VEC4"
        },
        {
            "bufferView" : 18,
            "componentType" : 5126,
            "count" : 273,
            "type" : "VEC2"
        },
        {
            "bufferView" : 19,
            "componentType" : 5123,
            "count" : 300,
            "type" : "SCALAR"
        },
        {
            "bufferView" : 20,
            "componentType" : 5126,
            "count" : 174,
            "max" : [
                1.25,
                0.699999988079071,
                -0.058000002056360245
            ],
            "min" : [
                0.05000000074505806,
                0.05000000074505806,
                -0.8579999208450317
            ],
            "type" : "VEC3"
        },
        {
            "bufferView" : 21,
            "componentType" : 5126,
            "count" : 174,
            "type" : "VEC3"
        },
        {
            "bufferView" : 22,
            "componentType" : 5126,
            "count" : 174,
            "type" : "VEC4"
        },
        {
            "bufferView" : 23,
            "componentType" : 5126,
            "count" : 174,
            "type" : "VEC2"
        },
        {
            "bufferView" : 24,
            "componentType" : 5123,
            "count" : 177,
            "type" : "SCALAR"
        }
    ],
    "bufferViews" : [
        {
            "buffer" : 0,
            "byteLength" : 4044,
            "byteOffset" : 0
        },
        {
            "buffer" : 0,
            "byteLength" : 4044,
            "byteOffset" : 4044
        },
        {
            "buffer" : 0,
            "byteLength" : 5392,
            "byteOffset" : 8088
        },
        {
            "buffer" : 0,
            "byteLength" : 2696,
            "byteOffset" : 13480
        },
        {
            "buffer" : 0,
            "byteLength" : 936,
            "byteOffset" : 16176
        },
        {
            "buffer" : 0,
            "byteLength" : 456,
            "byteOffset" : 17112
        },
        {
            "buffer" : 0,
            "byteLength" : 456,
            "byteOffset" : 17568
        },
        {
            "buffer" : 0,
            "byteLength" : 608,
            "byteOffset" : 18024
        },
        {
            "buffer" : 0,
            "byteLength" : 304,
            "byteOffset" : 18632
        },
        {
            "buffer" : 0,
            "byteLength" : 108,
            "byteOffset" : 18936
        },
        {
            "buffer" : 0,
            "byteLength" : 276,
            "byteOffset" : 19044
        },
        {
            "buffer" : 0,
            "byteLength" : 276,
            "byteOffset" : 19320
        },
        {
            "buffer" : 0,
            "byteLength" : 368,
            "byteOffset" : 19596
        },
        {
            "buffer" : 0,
            "byteLength" : 184,
            "byteOffset" : 19964
        },
        {
            "buffer" : 0,
            "byteLength" : 66,
            "byteOffset" : 20148
        },
        {
            "buffer" : 0,
            "byteLength" : 3276,
            "byteOffset" : 20216
        },
        {
            "buffer" : 0,
            "byteLength" : 3276,
            "byteOffset" : 23492
        },
        {
            "buffer" : 0,
            "byteLength" : 4368,
            "byteOffset" : 26768
        },
        {
            "buffer" : 0,
            "byteLength" : 2184,
            "byteOffset" : 31136
        },
        {
            "buffer" : 0,
            "byteLength" : 600,
            "byteOffset" : 33320
        },
        {
            "buffer" : 0,
            "byteLength" : 2088,
            "byteOffset" : 33920
        },
        {
            "buffer" : 0,
            "byteLength" : 2088,
            "byteOffset" : 36008
        },
        {
            "buffer" : 0,
            "byteLength" : 2784,
            "byteOffset" : 38096
        },
        {
            "buffer" : 0,
            "byteLength" : 1392,
            "byteOffset" : 40880
        },
        {
            "buffer" : 0,
            "byteLength" : 354,
            "byteOffset" : 42272
        }
    ],
    "buffers" : [
        {
            "byteLength" : 42628,
            "uri" : "house_type04.bin"
        }
    ]
}
